<?xml version="1.0" encoding="UTF-8" standalone="no"?>
<!-- Created with Inkscape (http://www.inkscape.org/) -->

<svg
   xmlns:dc="http://purl.org/dc/elements/1.1/"
   xmlns:cc="http://creativecommons.org/ns#"
   xmlns:rdf="http://www.w3.org/1999/02/22-rdf-syntax-ns#"
   xmlns:svg="http://www.w3.org/2000/svg"
   xmlns="http://www.w3.org/2000/svg"
   xmlns:sodipodi="http://sodipodi.sourceforge.net/DTD/sodipodi-0.dtd"
   xmlns:inkscape="http://www.inkscape.org/namespaces/inkscape"
   id="svg3212"
   height="22"
   width="22"
   version="1.0"
   inkscape:version="0.48.3.1 r9886"
   sodipodi:docname="gtg-panel.svg">
  <defs
     id="defs8" />
  <sodipodi:namedview
     pagecolor="#ffffff"
     bordercolor="#666666"
     borderopacity="1"
     objecttolerance="10"
     gridtolerance="10"
     guidetolerance="10"
     inkscape:pageopacity="0"
     inkscape:pageshadow="2"
     inkscape:window-width="762"
     inkscape:window-height="480"
     id="namedview6"
     showgrid="false"
     inkscape:zoom="10.727273"
     inkscape:cx="27.173729"
     inkscape:cy="11"
     inkscape:window-x="0"
     inkscape:window-y="24"
     inkscape:window-maximized="0"
     inkscape:current-layer="svg3212" />
  <metadata
     id="metadata13">
    <rdf:RDF>
      <cc:Work
         rdf:about="">
        <dc:format>image/svg+xml</dc:format>
        <dc:type
           rdf:resource="http://purl.org/dc/dcmitype/StillImage" />
        <dc:title></dc:title>
      </cc:Work>
    </rdf:RDF>
  </metadata>
  <path
     id="path3208"
     d="m5 5c-1.108 0-2 0.892-2 2v10c0 1.108 0.892 2 2 2h12c1.108 0 2-0.892 2-2v-10c0-1.108-0.892-2-2-2h-12zm9.0312 2c0.05517 0.00526 0.13563 0.03589 0.1875 0.0625l1.5625 0.78125c0.2075 0.10644 0.26963 0.36771 0.15625 0.5625l-4.875 8.375c-0.085 0.149-0.267 0.239-0.436 0.219-0.0517-0.0061-0.10762-0.0063-0.15625-0.03125-0.0052-0.0024-4.25-3.3125-4.25-3.3125-0.2075-0.106-0.2697-0.367-0.1563-0.562l1.0312-1.25c0.1134-0.195 0.3863-0.263 0.5938-0.156l2.3125 1.75 3.625-6.2192c0.085-0.1461 0.241-0.2346 0.406-0.2188z"
     style="opacity:.3" />
  <path
     id="rect2386"
     d="m5 4c-1.108 0-2 0.892-2 2v10c0 1.108 0.892 2 2 2h12c1.108 0 2-0.892 2-2v-10c0-1.108-0.892-2-2-2h-12zm9.0312 2c0.05517 0.00526 0.13563 0.03589 0.1875 0.0625l1.5625 0.78125c0.2075 0.10644 0.26963 0.36771 0.15625 0.5625l-4.875 8.375c-0.085 0.149-0.267 0.239-0.436 0.219-0.0517-0.0061-0.10762-0.0063-0.15625-0.03125-0.0052-0.0024-4.25-3.3125-4.25-3.3125-0.2075-0.106-0.2697-0.367-0.1563-0.562l1.0312-1.25c0.1134-0.195 0.3863-0.263 0.5938-0.156l2.3125 1.75 3.625-6.2192c0.085-0.1461 0.241-0.2346 0.406-0.2188z"
     style="fill:#1cbbed;fill-opacity:1" />
</svg>
