/* XPM */
static char * gtg_xpm[] = {
"32 32 324 2",
"  	c None",
". 	c #B5B7B4",
"+ 	c #E6E6E5",
"@ 	c #E4E5E2",
"# 	c #E4E4E2",
"$ 	c #E2E2E0",
"% 	c #E0E1DE",
"& 	c #DFDFDD",
"* 	c #DDDDDB",
"= 	c #DCDCD9",
"- 	c #D9DAD6",
"; 	c #D8D8D6",
"> 	c #D6D6D4",
", 	c #CACBC9",
"' 	c #9B9D98",
") 	c #4C77B0",
"! 	c #648BBB",
"~ 	c #678CBC",
"{ 	c #9EA7AC",
"] 	c #D3D5D1",
"^ 	c #C2C5BF",
"/ 	c #BFC1BC",
"( 	c #869098",
"_ 	c #658BBA",
": 	c #6589B9",
"< 	c #6489B9",
"[ 	c #6087B8",
"} 	c #4773AD",
"| 	c #4373AD",
"1 	c #A6BFDE",
"2 	c #B0CAE5",
"3 	c #AFC9E4",
"4 	c #A1A7AB",
"5 	c #B9BCB5",
"6 	c #BABDB6",
"7 	c #B5B8B2",
"8 	c #98A0A5",
"9 	c #B1CAE5",
"0 	c #99B5D7",
"a 	c #4978B0",
"b 	c #B9D0E8",
"c 	c #C2D6EB",
"d 	c #FAFBFD",
"e 	c #FFFFFF",
"f 	c #E8E8E7",
"g 	c #ABADA9",
"h 	c #A8AAA6",
"i 	c #A8A9A6",
"j 	c #ACADAA",
"k 	c #ECECEB",
"l 	c #FCFCFC",
"m 	c #FBFBFB",
"n 	c #FAFAFA",
"o 	c #FAFAF9",
"p 	c #F2F4F7",
"q 	c #BACFE6",
"r 	c #B1C9E3",
"s 	c #3F6AA4",
"t 	c #4B76AF",
"u 	c #B9CFE8",
"v 	c #E3ECF6",
"w 	c #FEFEFE",
"x 	c #FDFDFD",
"y 	c #FCFCFB",
"z 	c #F9F9F9",
"A 	c #F9F9F8",
"B 	c #F8F8F7",
"C 	c #D7E2ED",
"D 	c #B0C8E3",
"E 	c #3C6BA4",
"F 	c #E5EDF6",
"G 	c #F5F6F5",
"H 	c #DCDEDA",
"I 	c #DBDDD9",
"J 	c #FBFBFA",
"K 	c #D8E7CA",
"L 	c #F7F7F6",
"M 	c #AEC6E2",
"N 	c #3B68A3",
"O 	c #DFE0DD",
"P 	c #F8F9F7",
"Q 	c #BFD9A8",
"R 	c #7EB44A",
"S 	c #CEE0BB",
"T 	c #F6F6F5",
"U 	c #D6E1EC",
"V 	c #ABC4E1",
"W 	c #3B67A2",
"X 	c #E9E9E8",
"Y 	c #EFEFEF",
"Z 	c #D4D6D1",
"` 	c #D1D3CE",
" .	c #FEFEFD",
"..	c #F8F8F8",
"+.	c #C4DBAE",
"@.	c #AECF8E",
"#.	c #F5F5F4",
"$.	c #D4DFEB",
"%.	c #A8C3E1",
"&.	c #4976AE",
"*.	c #FDFDFC",
"=.	c #F4F4F3",
"-.	c #D3DFEA",
";.	c #A5C1DF",
">.	c #3865A0",
",.	c #4875AE",
"'.	c #F3F3F2",
").	c #D1DDE9",
"!.	c #A4C0DE",
"~.	c #38649F",
"{.	c #4874AD",
"].	c #EBECEA",
"^.	c #B9BCB4",
"/.	c #B8BBB4",
"(.	c #C0C3BC",
"_.	c #F6F6F4",
":.	c #F2F2F1",
"<.	c #CFDCE8",
"[.	c #A1BFDD",
"}.	c #37639F",
"|.	c #F4F4F4",
"1.	c #F7F7F7",
"2.	c #E9EAE8",
"3.	c #E8E9E7",
"4.	c #E7E8E6",
"5.	c #E6E7E5",
"6.	c #E5E6E4",
"7.	c #E5E6E3",
"8.	c #E4E5E3",
"9.	c #EDEEEC",
"0.	c #F5F5F3",
"a.	c #F2F2F0",
"b.	c #CDDAE7",
"c.	c #9FBDDD",
"d.	c #35619C",
"e.	c #4773AB",
"f.	c #E3E4E2",
"g.	c #EDEEEB",
"h.	c #F4F4F2",
"i.	c #F1F1F0",
"j.	c #F1F1EF",
"k.	c #CBD8E6",
"l.	c #9DBBDC",
"m.	c #34609B",
"n.	c #4671AA",
"o.	c #B8CFE7",
"p.	c #E4ECF6",
"q.	c #D0D2CD",
"r.	c #CFD1CC",
"s.	c #CFD1CB",
"t.	c #CED0CB",
"u.	c #E0E1DF",
"v.	c #F3F3F1",
"w.	c #D9E5CD",
"x.	c #B0CF92",
"y.	c #AECD8F",
"z.	c #F0F0EE",
"A.	c #CAD8E5",
"B.	c #9ABADB",
"C.	c #4671A9",
"D.	c #B6CDE6",
"E.	c #D3D5D0",
"F.	c #F1F2EF",
"G.	c #ABCC8D",
"H.	c #7BB146",
"I.	c #EFEFED",
"J.	c #C8D6E4",
"K.	c #98B8DA",
"L.	c #335D9A",
"M.	c #4670A7",
"N.	c #B3CBE5",
"O.	c #E2EBF5",
"P.	c #F0F0EF",
"Q.	c #EFEFEE",
"R.	c #EEEEEC",
"S.	c #C7D5E3",
"T.	c #96B6DA",
"U.	c #315C98",
"V.	c #436FA7",
"W.	c #B1CAE4",
"X.	c #E1EBF5",
"Y.	c #C6D5E3",
"Z.	c #94B5D9",
"`.	c #305C97",
" +	c #426DA7",
".+	c #AFC8E4",
"++	c #DFE9F4",
"@+	c #F4F5F4",
"#+	c #DADCD8",
"$+	c #D9DBD7",
"%+	c #D9DBD6",
"&+	c #D8DAD5",
"*+	c #D7D9D5",
"=+	c #D7D9D4",
"-+	c #D6D8D3",
";+	c #D5D7D3",
">+	c #D5D7D2",
",+	c #D5D7D1",
"'+	c #EEEEED",
")+	c #C5D4E3",
"!+	c #92B3D8",
"~+	c #2F5B97",
"{+	c #426CA5",
"]+	c #ACC7E3",
"^+	c #DFE9F3",
"/+	c #F3F4F2",
"(+	c #EBEBEA",
"_+	c #C4D3E2",
":+	c #8FB3D7",
"<+	c #2F5996",
"[+	c #406CA5",
"}+	c #AAC5E2",
"|+	c #DEE8F2",
"1+	c #E7E7E6",
"2+	c #ECECEC",
"3+	c #D2D4CF",
"4+	c #EDEDEB",
"5+	c #D1DFC1",
"6+	c #C3D2E2",
"7+	c #8DB1D6",
"8+	c #2D5994",
"9+	c #A8C4E1",
"0+	c #DCE6F1",
"a+	c #E6E6E4",
"b+	c #EBEBEB",
"c+	c #D1D3CF",
"d+	c #CED0CA",
"e+	c #CDCFCA",
"f+	c #CDCFC9",
"g+	c #B8D2A0",
"h+	c #7BB147",
"i+	c #C8DAB4",
"j+	c #C2D2E2",
"k+	c #8DB0D6",
"l+	c #2C5894",
"m+	c #3F68A2",
"n+	c #A5C1E1",
"o+	c #DAE4EF",
"p+	c #F1F1F1",
"q+	c #E3E4E1",
"r+	c #E2E3E0",
"s+	c #E1E2E0",
"t+	c #E1E2DF",
"u+	c #DFE0DE",
"v+	c #E7E8E5",
"w+	c #BED5A6",
"x+	c #A8C989",
"y+	c #C7D4DD",
"z+	c #2C5893",
"A+	c #3E68A2",
"B+	c #A3C0E0",
"C+	c #CED7E0",
"D+	c #F0F0F0",
"E+	c #DFE0DC",
"F+	c #E7E8E4",
"G+	c #C3CBCB",
"H+	c #2C5792",
"I+	c #3D67A1",
"J+	c #A1BEDF",
"K+	c #CBD3DB",
"L+	c #E8E9E5",
"M+	c #D7DAD3",
"N+	c #D6D9D2",
"O+	c #D6D9D1",
"P+	c #D5D9D1",
"Q+	c #D1D5CD",
"R+	c #91A1A2",
"S+	c #3B669E",
"T+	c #9EBDDE",
"U+	c #C9D1D9",
"V+	c #DBDCD8",
"W+	c #C3C9BE",
"X+	c #C9CFC4",
"Y+	c #C8CEC3",
"Z+	c #BCC1B7",
"`+	c #9FAEB4",
" @	c #3A669E",
".@	c #9CBBDD",
"+@	c #ACBAC7",
"@@	c #F5F6F4",
"#@	c #9CAEC0",
"$@	c #37609B",
"%@	c #99BADC",
"&@	c #6C8FB5",
"*@	c #798B9E",
"=@	c #7F90A0",
"-@	c #7E8EA0",
";@	c #7E8E9F",
">@	c #7D8E9E",
",@	c #7D8D9E",
"'@	c #8695A6",
")@	c #A3AFBA",
"!@	c #A3AEB9",
"~@	c #939FAA",
"{@	c #748292",
"]@	c #7D8E9F",
"^@	c #8091A3",
"/@	c #7F90A2",
"(@	c #788899",
"_@	c #75899E",
":@	c #668DB7",
"<@	c #2B5590",
"[@	c #2D5489",
"}@	c #88A8CF",
"|@	c #89AFD7",
"1@	c #86ADD5",
"2@	c #85ACD5",
"3@	c #84ABD4",
"4@	c #82AAD4",
"5@	c #84ABD5",
"6@	c #789CC5",
"7@	c #264A7E",
"8@	c #305689",
"9@	c #4B70A2",
"0@	c #4D73A2",
"a@	c #4D71A2",
"b@	c #4D70A2",
"c@	c #4D70A0",
"d@	c #4B709F",
"e@	c #4B6F9F",
"f@	c #4A6F9F",
"g@	c #4A6D9F",
"h@	c #476C9D",
"i@	c #2A4F80",
"                                                                ",
"                  . + @ # $ % & * = - ; > , '                   ",
"    ) ! ~ ~ ~ ~ ~ { ] ^ ^ ^ ^ ^ ^ ^ ^ ^ ^ / ( _ _ _ : < [ }     ",
"  | 1 2 3 3 3 3 3 4 5 6 6 6 6 6 6 6 6 6 6 7 8 3 3 3 3 3 9 0     ",
"  a b c d e e e e f g h h h h h h h h h i j k l m n o p q r s   ",
"  t u v e e e e e e e e e e e e e e e w x l y m n z A B C D E   ",
"  t u F G H H H H H H H H H H H H H I % l y J n z A K L C M N   ",
"  t u F G H H H H H H H H H H H I I I O m J o P Q R S T U V W   ",
"  t u F X Y Z ` ` ` ` ` ` T e w  .x l m J o A ..+.@.T #.$.%.W   ",
"  &.u F e e e e e e e e e e w x *.l m n o A B L L T #.=.-.;.>.  ",
"  ,.u F e e e e e e e e e w x *.y m n z A B L T T #.=.'.).!.~.  ",
"  {.u F ].6 6 6 6 6 6 6 6 5 5 5 ^././.(.B L T _.#.=.'.:.<.[.}.  ",
"  {.u F |.1.2.3.3.3.3.4.4.5.6.6.7.8.9.B L T #.0.=.'.:.a.b.c.d.  ",
"  e.u F |.1.2.3.3.4.4.4.5.6.6.7.@ f.g.L T #.=.h.'.:.i.j.k.l.m.  ",
"  n.o.p.X Y Z ` ` q.q.q.q.r.r.r.s.t.t.t.u.=.h.v.w.x.y.z.A.B.m.  ",
"  C.D.v X Y ] ` q.q.q.q.r.r.r.s.t.t.t.E.=.'.v.F.G.H.z.I.J.K.L.  ",
"  M.N.O.e e w x l y J n z A B L T _.#.=.'.v.a.j.P.Q.I.R.S.T.U.  ",
"  V.W.X.e w x l y J o z ..B L T #.#.=.'.:.a.j.z.Q.I.R.R.Y.Z.`.  ",
"   +.+++@+I #+$+$+%+&+*+*+=+-+;+>+,+Z k i.j.z.I.'+R.R.R.)+!+~+  ",
"  {+]+^+/+#+$+$+%+&+*+*+=+-+;+>+,+Z ] (+j.z.I.R.R.R.R.R._+:+<+  ",
"  [+}+|+1+2+3+r.r.s.t.t.t.4+=.'.v.a.i.P.z.I.R.R.R.R.5+R.6+7+8+  ",
"  s 9+0+a+b+c+r.s.t.t.t.d+e+e+f+f+` P.Q.I.R.R.g.g+h+i+R.j+k+l+  ",
"  m+n+o+Y p+7.f.q+r+s+s+t+% u+O v+z.Q.I.R.R.R.R.w+x+R.R.y+k+z+  ",
"  A+B+C+Q.D+8.q+r+s+t+t+% u+O E+F+I.'+R.R.R.R.R.R.R.R.R.G+k+H+  ",
"  I+J+K+B 1.L T #.=.h.'.:.i.L+M+N+O+O+O+O+O+P+O+O+O+O+Q+R+k+H+  ",
"  S+T+U+L L T #.=.'.v.a.i.P.V+W+X+X+X+X+X+Y+Z+X+X+X+X+X+`+k+H+  ",
"   @.@+@T T #.=.'.v.a.i.P.z.@ 9.@@@@@@@@@@/+6.@@@@@@@@@@#@k+H+  ",
"  $@%@&@*@=@-@;@>@,@'@)@!@~@{@]@^@^@^@^@^@/@(@^@^@^@^@_@:@k+<@  ",
"  [@}@|@1@1@2@3@4@4@4@4@4@4@4@4@4@4@4@4@4@4@4@4@4@4@4@4@5@6@7@  ",
"    8@9@0@a@a@b@c@c@d@d@e@e@f@g@g@g@g@g@g@g@g@g@g@g@g@g@h@i@    ",
"                                                                ",
"                                                                "};
