<?xml version="1.0" encoding="UTF-8"?>
<svg height="128px" viewBox="0 0 128 128" width="128px" xmlns="http://www.w3.org/2000/svg">
    <g fill-rule="evenodd">
        <path d="m 26.730469 15.074219 h 74.539062 c 3.714844 0 6.730469 3.257812 6.730469 7.277343 v 90.371094 c 0 4.019532 -3.015625 7.277344 -6.730469 7.277344 h -74.539062 c -3.714844 0 -6.730469 -3.257812 -6.730469 -7.277344 v -90.371094 c 0 -4.019531 3.015625 -7.277343 6.730469 -7.277343 z m 0 0" fill="#1a5fb4"/>
        <path d="m 27.691406 8 h 72.617188 c 4.246094 0 7.691406 3.765625 7.691406 8.410156 v 91.179688 c 0 4.644531 -3.445312 8.410156 -7.691406 8.410156 h -72.617188 c -4.246094 0 -7.691406 -3.765625 -7.691406 -8.410156 v -91.179688 c 0 -4.644531 3.445312 -8.410156 7.691406 -8.410156 z m 0 0" fill="#62a0ea"/>
        <path d="m 28 108 h 72 v -84 h -72 z m 0 0" fill="#deddda"/>
        <path d="m 28 104 h 72 v -88 h -72 z m 0 0" fill="#ffffff"/>
        <path d="m 43 10 h 42 c 1.65625 0 3 1.234375 3 2.757812 v 6.484376 c 0 1.523437 -1.34375 2.757812 -3 2.757812 h -42 c -1.65625 0 -3 -1.234375 -3 -2.757812 v -6.484376 c 0 -1.523437 1.34375 -2.757812 3 -2.757812 z m 0 0" fill="#9a9996"/>
        <path d="m 43 4 h 42 c 1.65625 0 3 1.292969 3 2.882812 v 7.234376 c 0 1.589843 -1.34375 2.882812 -3 2.882812 h -42 c -1.65625 0 -3 -1.292969 -3 -2.882812 v -7.234376 c 0 -1.589843 1.34375 -2.882812 3 -2.882812 z m 0 0" fill="#deddda"/>
        <path d="m 43 8 h 42 c 1.65625 0 3 1.292969 3 2.882812 v 4.234376 c 0 1.589843 -1.34375 2.882812 -3 2.882812 h -42 c -1.65625 0 -3 -1.292969 -3 -2.882812 v -4.234376 c 0 -1.589843 1.34375 -2.882812 3 -2.882812 z m 0 0" fill="#c0bfbc"/>
    </g>
    <path d="m 37.882812 90.960938 c -1.683593 0 -3.039062 1.355468 -3.039062 3.039062 s 1.355469 3.039062 3.039062 3.039062 c 1.683594 0 3.042969 -1.355468 3.042969 -3.039062 s -1.359375 -3.039062 -3.042969 -3.039062 z m 0 0" fill="none" stroke="#77767b" stroke-width="1.92325"/>
    <path d="m 42.472656 40 c -0.207031 0 -0.386718 0.074219 -0.53125 0.230469 l -5.089844 5.535156 l -2.28125 -2.484375 c -0.144531 -0.15625 -0.316406 -0.238281 -0.523437 -0.238281 s -0.386719 0.082031 -0.53125 0.238281 l -1.050781 1.144531 c -0.144532 0.160157 -0.21875 0.347657 -0.21875 0.570313 c 0 0.226562 0.074218 0.417968 0.21875 0.578125 l 2.804687 3.042969 l 1.054688 1.144531 c 0.148437 0.160156 0.320312 0.238281 0.527343 0.238281 c 0.207032 0 0.386719 -0.082031 0.53125 -0.238281 l 1.050782 -1.144531 l 5.621094 -6.09375 c 0.144531 -0.15625 0.214843 -0.351563 0.214843 -0.574219 c 0 -0.226563 -0.070312 -0.414063 -0.214843 -0.570313 l -1.054688 -1.148437 c -0.144531 -0.15625 -0.320312 -0.230469 -0.527344 -0.230469 z m 0 0" fill="#2ec27e" fill-rule="evenodd"/>
    <path d="m 42.472656 55.90625 c -0.207031 0 -0.386718 0.074219 -0.53125 0.230469 l -5.089844 5.53125 l -2.28125 -2.480469 c -0.144531 -0.160156 -0.316406 -0.238281 -0.523437 -0.238281 s -0.386719 0.078125 -0.53125 0.238281 l -1.050781 1.144531 c -0.144532 0.15625 -0.21875 0.347657 -0.21875 0.570313 c 0 0.226562 0.074218 0.417968 0.21875 0.574218 l 2.804687 3.046876 l 1.054688 1.144531 c 0.148437 0.15625 0.320312 0.238281 0.527343 0.238281 c 0.207032 0 0.386719 -0.082031 0.53125 -0.238281 l 1.050782 -1.144531 l 5.621094 -6.09375 c 0.144531 -0.15625 0.214843 -0.351563 0.214843 -0.574219 c 0 -0.226563 -0.070312 -0.414063 -0.214843 -0.570313 l -1.054688 -1.148437 c -0.144531 -0.15625 -0.320312 -0.230469 -0.527344 -0.230469 z m 0 0" fill="#2ec27e" fill-rule="evenodd"/>
    <path d="m 32 28 h 64 v 4 h -64 z m 0 0" fill="#9a9996"/>
    <path d="m 32 80 h 56 v 4 h -56 z m 0 0" fill="#9a9996"/>
    <path d="m 48 40 h 42 v 4 h -42 z m 0 0" fill="#deddda"/>
    <path d="m 48 56 h 48 v 4 h -48 z m 0 0" fill="#deddda"/>
    <path d="m 48 64 h 24 v 4 h -24 z m 0 0" fill="#deddda"/>
    <path d="m 48 92 h 48 v 4 h -48 z m 0 0" fill="#deddda"/>
</svg>
