<?xml version="1.0" encoding="UTF-8" standalone="no"?>
<!-- Created with Inkscape (http://www.inkscape.org/) -->
<svg
   xmlns:dc="http://purl.org/dc/elements/1.1/"
   xmlns:cc="http://creativecommons.org/ns#"
   xmlns:rdf="http://www.w3.org/1999/02/22-rdf-syntax-ns#"
   xmlns:svg="http://www.w3.org/2000/svg"
   xmlns="http://www.w3.org/2000/svg"
   xmlns:xlink="http://www.w3.org/1999/xlink"
   xmlns:sodipodi="http://sodipodi.sourceforge.net/DTD/sodipodi-0.dtd"
   xmlns:inkscape="http://www.inkscape.org/namespaces/inkscape"
   width="64px"
   height="64px"
   id="svg3727"
   sodipodi:version="0.32"
   inkscape:version="0.46"
   sodipodi:docname="rtm_image.svg"
   inkscape:output_extension="org.inkscape.output.svg.inkscape"
   inkscape:export-filename="/home/luca/gtg/rtm-sync-plugin/GTG/plugins/rtm_sync/icons/hicolor/16x16/rtm_image.png"
   inkscape:export-xdpi="22.5"
   inkscape:export-ydpi="22.5">
  <defs
     id="defs3729">
    <filter
       inkscape:collect="always"
       id="filter3502"
       x="-0.044082869"
       width="1.0881657"
       y="-0.19633912"
       height="1.3926782">
      <feGaussianBlur
         inkscape:collect="always"
         stdDeviation="1.4852688"
         id="feGaussianBlur3504" />
    </filter>
    <linearGradient
       id="linearGradient3661">
      <stop
         style="stop-color:#3399ff;stop-opacity:1;"
         offset="0"
         id="stop3663" />
      <stop
         id="stop3675"
         offset="0.5"
         style="stop-color:#3399ff;stop-opacity:1;" />
      <stop
         style="stop-color:#3399ff;stop-opacity:0.68627451;"
         offset="0.75"
         id="stop3685" />
      <stop
         id="stop3687"
         offset="0.875"
         style="stop-color:#3399ff;stop-opacity:0.52941176;" />
      <stop
         style="stop-color:#3399ff;stop-opacity:0.37719297;"
         offset="1"
         id="stop3665" />
    </linearGradient>
    <linearGradient
       inkscape:collect="always"
       xlink:href="#linearGradient3661"
       id="linearGradient3725"
       gradientUnits="userSpaceOnUse"
       x1="129.75728"
       y1="658.44305"
       x2="232.12813"
       y2="657.89764" />
    <clipPath
       clipPathUnits="userSpaceOnUse"
       id="clipPath3545">
      <rect
         style="opacity:1;fill:#000000;fill-opacity:1;fill-rule:nonzero;stroke:none;stroke-width:9.60000038;stroke-linejoin:miter;stroke-miterlimit:4;stroke-dasharray:none;stroke-dashoffset:0;stroke-opacity:1"
         id="rect3547"
         width="188.70778"
         height="271.60831"
         x="83.991325"
         y="571.32098" />
    </clipPath>
    <linearGradient
       id="linearGradient3677">
      <stop
         style="stop-color:#ececec;stop-opacity:1"
         offset="0"
         id="stop3679" />
      <stop
         id="stop3689"
         offset="0.5"
         style="stop-color:#ffffff;stop-opacity:0.49803922;" />
      <stop
         style="stop-color:#ececec;stop-opacity:1"
         offset="1"
         id="stop3681" />
    </linearGradient>
    <linearGradient
       inkscape:collect="always"
       xlink:href="#linearGradient3677"
       id="linearGradient3723"
       gradientUnits="userSpaceOnUse"
       x1="115.46449"
       y1="774.37683"
       x2="235.97925"
       y2="775.91943" />
    <inkscape:perspective
       sodipodi:type="inkscape:persp3d"
       inkscape:vp_x="0 : 32 : 1"
       inkscape:vp_y="0 : 1000 : 0"
       inkscape:vp_z="64 : 32 : 1"
       inkscape:persp3d-origin="32 : 21.333333 : 1"
       id="perspective3735" />
  </defs>
  <sodipodi:namedview
     id="base"
     pagecolor="#ffffff"
     bordercolor="#666666"
     borderopacity="1.0"
     inkscape:pageopacity="0.0"
     inkscape:pageshadow="2"
     inkscape:zoom="1.9445436"
     inkscape:cx="21.790111"
     inkscape:cy="76.61186"
     inkscape:current-layer="layer1"
     showgrid="true"
     inkscape:document-units="px"
     inkscape:grid-bbox="true"
     inkscape:window-width="640"
     inkscape:window-height="628"
     inkscape:window-x="506"
     inkscape:window-y="22" />
  <metadata
     id="metadata3732">
    <rdf:RDF>
      <cc:Work
         rdf:about="">
        <dc:format>image/svg+xml</dc:format>
        <dc:type
           rdf:resource="http://purl.org/dc/dcmitype/StillImage" />
      </cc:Work>
    </rdf:RDF>
  </metadata>
  <g
     id="layer1"
     inkscape:label="Layer 1"
     inkscape:groupmode="layer">
    <g
       id="g3711"
       transform="matrix(0.1214085,0.1214085,-0.1214085,0.1214085,61.002827,-86.966337)"
       inkscape:transform-center-x="-16.513266"
       inkscape:transform-center-y="-36.581756">
      <path
         id="path3396"
         d="M 414.51135,403.70408 C 414.51135,414.20049 395.48743,422.71931 372.04725,422.71931 C 348.60706,422.71931 329.58314,414.20049 329.58314,403.70408 C 329.58314,393.20767 348.60706,384.68885 372.04725,384.68885 C 395.48743,384.68885 414.51135,393.20767 414.51135,403.70408 z"
         inkscape:transform-center-y="41.974325"
         inkscape:transform-center-x="-9.0994502"
         style="opacity:0.91085271;fill:#000000;fill-opacity:1;fill-rule:nonzero;stroke:none;stroke-width:9.60000038;stroke-linejoin:miter;stroke-miterlimit:4;stroke-dashoffset:0;stroke-opacity:1" />
      <path
         id="path3400"
         d="M 414.51135,393.70408 C 414.51135,404.20049 395.48743,412.71931 372.04725,412.71931 C 348.60706,412.71931 329.58314,404.20049 329.58314,393.70408 C 329.58314,383.20767 348.60706,374.68885 372.04725,374.68885 C 395.48743,374.68885 414.51135,383.20767 414.51135,393.70408 z"
         inkscape:transform-center-y="41.974325"
         inkscape:transform-center-x="-9.0994502"
         style="opacity:0.91085271;fill:#000000;fill-opacity:1;fill-rule:nonzero;stroke:none;stroke-width:9.60000038;stroke-linejoin:miter;stroke-miterlimit:4;stroke-dashoffset:0;stroke-opacity:1" />
      <path
         id="path3402"
         d="M 414.51135,403.70408 C 414.51135,414.20049 395.48743,422.71931 372.04725,422.71931 C 348.60706,422.71931 329.58314,414.20049 329.58314,403.70408 C 329.58314,393.20767 348.60706,384.68885 372.04725,384.68885 C 395.48743,384.68885 414.51135,393.20767 414.51135,403.70408 z"
         inkscape:transform-center-y="41.974325"
         inkscape:transform-center-x="-9.0994502"
         style="opacity:0.91085271;fill:#000000;fill-opacity:1;fill-rule:nonzero;stroke:none;stroke-width:9.60000038;stroke-linejoin:miter;stroke-miterlimit:4;stroke-dashoffset:0;stroke-opacity:1" />
      <path
         transform="matrix(0.9856192,0,0,1,199.34766,-2.7713095)"
         clip-path="url(#clipPath3545)"
         sodipodi:nodetypes="cccccccccccccccccccccc"
         id="path3534"
         d="M 138.90625,409.375 L 139,410.375 L 139.09375,411.34375 C 140.75679,432.38408 139.68245,453.56341 139.21875,474.59375 C 130.4306,497.46685 103.76148,508.08521 95.34375,531.25 C 94.719742,559.63205 95.8781,588.24637 95.84375,616.71875 C 96.525929,671.97803 96.53609,727.46035 97.21875,782.59375 C 100.28884,803.27664 119.73439,816.6627 138.25,823.09375 C 170.29613,833.76601 208.57233,831.13483 236.25,810.71875 C 247.88637,802.02197 256.05515,787.89092 254.28125,773.0625 C 254.46462,692.74557 255.55912,612.36257 256.0625,532.09375 C 249.30834,511.89397 228.57494,501.13943 217,484.1875 C 206.62003,465.60923 211.70898,431.09823 211.625,409.375 C 187.38542,409.37499 163.14583,409.375 138.90625,409.375 z M 173.96875,528.46875 C 180.68858,528.33398 187.4842,528.79077 194.09375,529.625 C 215.45628,532.8583 239.25025,540.68239 251.28125,559.875 C 259.12082,572.0293 254.62503,588.43585 244.15625,597.4375 C 224.14426,615.68821 195.2559,620.79378 168.875,619.71875 C 144.89679,618.14655 118.37989,611.34257 102.8125,591.625 C 93.866467,580.60806 95.372797,563.83495 105.125,553.8125 C 122.5306,535.22564 149.33071,529.07853 173.96875,528.46875 z"
         style="fill:url(#linearGradient3723);fill-opacity:1;fill-rule:nonzero;stroke:none;stroke-width:9.60000038;stroke-linejoin:miter;stroke-miterlimit:4;stroke-dashoffset:0;stroke-opacity:1" />
      <path
         id="path3508"
         d="M 369.94777,528.00618 C 345.30973,528.61593 318.50962,534.76307 301.10402,553.34993 C 291.35182,563.37235 289.84549,580.14549 298.79152,591.16243 C 314.35891,610.87997 340.87468,617.66905 364.85289,619.24125 C 391.23379,620.31629 420.12328,615.22564 440.13527,596.97493 C 450.60405,587.97325 455.09984,571.56673 447.26027,559.41243 C 435.22927,540.21979 411.4353,532.39573 390.07277,529.16243 C 383.46322,528.32817 376.6676,527.87141 369.94777,528.00618 z"
         style="opacity:1;fill:#f2f2f2;fill-opacity:1;fill-rule:nonzero;stroke:none;stroke-width:9.60000038;stroke-linejoin:miter;stroke-miterlimit:4;stroke-dasharray:none;stroke-dashoffset:0;stroke-opacity:1" />
      <path
         style="fill:url(#linearGradient3725);fill-opacity:1;fill-rule:nonzero;stroke:none;stroke-width:9.60000038;stroke-linejoin:miter;stroke-miterlimit:4;stroke-dashoffset:0;stroke-opacity:1"
         d="M 138.90625,409.375 L 139,410.375 L 139.09375,411.34375 C 140.75679,432.38408 139.68245,453.56341 139.21875,474.59375 C 130.4306,497.46685 103.76148,508.08521 95.34375,531.25 C 94.719742,559.63205 95.8781,588.24637 95.84375,616.71875 C 96.525929,671.97803 96.53609,631.46035 97.21875,686.59375 C 100.28884,707.27664 119.73439,720.6627 138.25,727.09375 C 170.29613,737.76601 208.57233,735.13483 236.25,714.71875 C 247.88637,706.02197 256.05515,691.89092 254.28125,677.0625 C 254.46462,596.74557 255.55912,612.36257 256.0625,532.09375 C 249.30834,511.89397 228.57494,501.13943 217,484.1875 C 206.62003,465.60923 211.70898,431.09823 211.625,409.375 C 187.38542,409.37499 163.14583,409.375 138.90625,409.375 z M 173.96875,528.46875 C 180.68858,528.33398 187.4842,528.79077 194.09375,529.625 C 215.45628,532.8583 239.25025,540.68239 251.28125,559.875 C 259.12082,572.0293 254.62503,588.43585 244.15625,597.4375 C 224.14426,615.68821 195.2559,620.79378 168.875,619.71875 C 144.89679,618.14655 118.37989,611.34257 102.8125,591.625 C 93.866467,580.60806 95.372797,563.83495 105.125,553.8125 C 122.5306,535.22564 149.33071,529.07853 173.96875,528.46875 z"
         id="path3659"
         sodipodi:nodetypes="cccccccccccccccccccccc"
         clip-path="url(#clipPath3545)"
         transform="matrix(0.9856192,0,0,1,199.34766,37.228691)" />
      <path
         id="path3563"
         d="M 333.14099,404.25022 C 335.49334,426.41602 333.99301,448.60995 333.79724,470.81275 C 333.33145,472.18625 332.79969,473.46195 332.20349,474.62525 C 322.27441,493.99985 294.30805,508.61965 289.39099,529.43775 C 291.10411,668.49535 291.42224,773.93775 291.42224,773.93775 C 291.40471,774.39025 291.42224,774.85755 291.42224,775.31275 C 291.42226,775.76805 291.40469,776.23525 291.42224,776.68775 L 291.42224,780.46905 L 291.79724,780.46905 C 295.756,807.17195 330.16049,828.06275 372.01599,828.09405 C 372.04741,828.09405 372.07833,828.09405 372.10974,828.09405 C 413.96526,828.06275 448.36974,807.17185 452.32849,780.46905 L 452.70349,780.46905 L 452.70349,776.68775 C 452.72106,776.23515 452.70348,775.76805 452.70349,775.31275 C 452.70351,774.85755 452.72103,774.39025 452.70349,773.93775 C 452.70351,773.93775 452.99041,668.49525 454.70349,529.43775 C 449.78645,508.61975 421.82008,493.99985 411.89099,474.62525 C 411.30699,473.48575 410.78728,472.21675 410.32849,470.87525 L 410.04724,404.25022 L 333.14099,404.25022 z M 337.54724,408.25022 C 360.39099,408.25022 383.23474,408.25022 406.07849,408.25022 C 406.12735,420.43772 406.18585,432.62522 406.23474,444.81275 C 407.10693,454.22905 404.81823,463.84295 406.98474,473.06275 C 415.68479,495.66375 441.89079,505.80335 450.29724,528.71905 C 450.30128,608.04355 448.768,687.54235 448.70349,766.93775 C 450.40115,779.71305 445.88556,792.90285 436.45349,801.71905 C 411.40508,824.19635 374.0633,828.57625 342.29724,820.15645 C 322.49257,814.98065 300.65448,802.54255 295.95349,780.96905 C 294.88669,751.98605 295.34734,722.85275 294.92224,693.81275 C 294.94021,638.71625 293.4657,583.62415 293.79724,528.53145 C 302.5795,505.57595 328.81514,495.25805 337.51599,472.21905 C 338.26259,451.56455 339.063,430.72372 337.67224,410.03142 L 337.60974,409.25022 L 337.54724,408.25022 z"
         style="fill:#000000;fill-opacity:1;fill-rule:nonzero;stroke:none;stroke-width:9.60000038;stroke-linejoin:miter;stroke-miterlimit:4;stroke-dashoffset:0;stroke-opacity:1" />
      <path
         id="path3417"
         d="M 414.47141,393.86713 C 414.16923,404.24732 395.25459,412.61713 372.00266,412.61713 C 349.29499,412.61714 330.73443,404.62835 329.59641,394.58588 L 329.56516,403.61713 C 329.50442,414.11336 348.56248,422.61714 372.00266,422.61713 C 395.44284,422.61713 414.47141,414.11354 414.47141,403.61713 C 414.10399,400.99347 414.71184,396.16626 414.47141,393.86713 z"
         style="opacity:1;fill:#0060be;fill-opacity:1;fill-rule:nonzero;stroke:none;stroke-width:9.60000038;stroke-linejoin:miter;stroke-miterlimit:4;stroke-dashoffset:0;stroke-opacity:1" />
      <path
         id="path3404"
         d="M 414.51135,393.70408 C 414.51135,404.20049 395.48743,412.71931 372.04725,412.71931 C 348.60706,412.71931 329.58314,404.20049 329.58314,393.70408 C 329.58314,383.20767 348.60706,374.68885 372.04725,374.68885 C 395.48743,374.68885 414.51135,383.20767 414.51135,393.70408 z"
         inkscape:transform-center-y="41.974325"
         inkscape:transform-center-x="-9.0994502"
         style="opacity:0.91085271;fill:#0060be;fill-opacity:1;fill-rule:nonzero;stroke:none;stroke-width:9.60000038;stroke-linejoin:miter;stroke-miterlimit:4;stroke-dashoffset:0;stroke-opacity:1" />
      <path
         sodipodi:nodetypes="cccccccc"
         id="path3434"
         d="M 331.61606,403.625 C 332.77186,412.45706 343.31251,415.58934 350.58481,417.96875 C 369.00699,422.23097 390.1947,422.18632 406.67856,412.1875 C 409.76447,410.08284 413.03827,406.75523 412.39731,402.65625 C 399.53954,413.82702 381.02227,415.1994 364.61901,414.32955 C 352.97865,413.20127 340.32229,410.83165 331.61606,402.5 L 331.61606,403.5 L 331.61606,403.625 z"
         style="opacity:1;fill:#004185;fill-opacity:1;fill-rule:nonzero;stroke:none;stroke-width:9.60000038;stroke-linejoin:miter;stroke-miterlimit:4;stroke-dashoffset:0;stroke-opacity:1;filter:url(#filter3502)" />
    </g>
  </g>
</svg>
